<?xml version="1.0" encoding="UTF-8"?>
<svg id="Layer_1_copy_2" data-name="Layer 1 copy 2" xmlns="http://www.w3.org/2000/svg" viewBox="0 0 153.77 73.14">
  <defs>
    <style>
      .cls-1 {
        fill: #f16522;
      }

      .cls-2 {
        fill: #404041;
      }

      .cls-3 {
        fill: #109488;
      }
    </style>
  </defs>
  <g>
    <path class="cls-2" d="M44.33,45.25v15.15h-5.92v-30.8h5.92v14.83l12.47-14.83h6.83l-12.69,15.02,13.1,15.79h-7.14l-12.56-15.15Z"/>
    <path class="cls-2" d="M66.99,29.6h5.69v30.8h-5.69v-30.8Z"/>
    <path class="cls-2" d="M77.23,49.03c0-6.23,4.64-11.1,11.15-11.1,6.46-.05,10.65,4.55,10.65,9.51,0,1.73-.59,3.55-1.55,5h-5.92c1-1.41,1.59-2.78,1.59-4.28,0-2.73-2.05-4.78-4.78-4.78-3.19,0-5.37,2.46-5.37,5.55s2.41,6.05,7.19,6.05h8.78l-1.55,5.42h-7.83c-7.23,0-12.38-4.87-12.38-11.38Z"/>
    <path class="cls-2" d="M102.75,49.03c0-6.23,4.64-11.1,11.15-11.1,6.46-.05,10.65,4.55,10.65,9.51,0,1.73-.59,3.55-1.55,5h-5.92c1-1.41,1.59-2.78,1.59-4.28,0-2.73-2.05-4.78-4.78-4.78-3.19,0-5.37,2.46-5.37,5.55s2.41,6.05,7.19,6.05h8.78l-1.55,5.42h-7.83c-7.23,0-12.38-4.87-12.38-11.38Z"/>
    <path class="cls-2" d="M137.24,38.43h3.09v5.42h-2.46c-1.96,0-3.14,1.09-3.14,3.28v13.29h-5.69v-13.7c0-4.96,2.82-8.28,8.19-8.28Z"/>
    <path class="cls-2" d="M143.22,31.58c0-3.26,2.15-4.69,4.42-4.69s4.4,1.43,4.4,4.69-2.15,4.71-4.43,4.71-4.39-1.38-4.39-4.71ZM151.39,31.58c0-2.5-1.48-4.06-3.76-4.06s-3.78,1.54-3.78,4.06,1.44,4.07,3.76,4.07,3.78-1.52,3.78-4.07ZM145.89,29.12h1.49c1.53,0,2.29.46,2.29,1.67,0,.95-.61,1.43-1.64,1.56l1.57,1.62h-.87l-1.51-1.58h-.7v1.58h-.63v-4.84ZM147.37,31.79c1.28,0,1.67-.37,1.67-1,0-.68-.27-1.06-1.64-1.06h-.87v2.06h.85Z"/>
  </g>
  <g>
    <path class="cls-3" d="M7.57,42.14l-7.57.03.21,18.03,7.36-18.06ZM29.37,59.22l-14.56-10.16,7.37,13.35,11.37-.12-4.19-3.07Z"/>
    <path class="cls-1" d="M29.63,32.13l3.04-3.14c.21-.31.41-.62.62-.93h-.58l-17.58.07L1.99,59.96l21.4-21.38,6.25-6.46Z"/>
  </g>
</svg>