<?xml version="1.0" encoding="UTF-8"?>
<svg id="Layer_1_copy" data-name="Layer 1 copy" xmlns="http://www.w3.org/2000/svg" viewBox="0 0 127.37 69.02">
  <defs>
    <style>
      .cls-1 {
        fill: #f16522;
      }

      .cls-2 {
        fill: #404041;
      }

      .cls-3 {
        fill: #109488;
      }
    </style>
  </defs>
  <g>
    <path class="cls-2" d="M41.84,44.72v14.46h-4.44v-29.21h4.44v14.07l12.69-14.07h5.31l-12.9,14.24,13.33,14.97h-5.48l-12.95-14.46Z"/>
    <path class="cls-2" d="M60.48,29.97h4.31v29.21h-4.31v-29.21Z"/>
    <path class="cls-2" d="M66.61,48.52c0-5.83,4.27-10.53,10.44-10.53,5.96-.04,9.93,4.23,9.93,9.06,0,1.99-.69,3.88-1.73,5.35h-4.66c1.21-1.64,1.9-3.15,1.9-4.83,0-3.02-2.24-5.44-5.44-5.44-3.62,0-6.04,2.85-6.04,6.3s2.55,6.65,7.73,6.65h7.94l-1.25,4.1h-7.16c-7.03,0-11.65-4.75-11.65-10.66Z"/>
    <path class="cls-2" d="M87.88,48.52c0-5.83,4.27-10.53,10.44-10.53,5.96-.04,9.92,4.23,9.92,9.06,0,1.99-.69,3.88-1.73,5.35h-4.66c1.21-1.64,1.9-3.15,1.9-4.83,0-3.02-2.24-5.44-5.44-5.44-3.62,0-6.04,2.85-6.04,6.3s2.55,6.65,7.72,6.65h7.94l-1.25,4.1h-7.16c-7.03,0-11.65-4.75-11.65-10.66Z"/>
    <path class="cls-2" d="M117.09,38.47h2.98v4.1h-2.5c-1.94,0-3.28,1.08-3.28,3.58v13.03h-4.32v-13.33c0-4.49,2.55-7.38,7.12-7.38Z"/>
    <path class="cls-2" d="M120.57,32.93c0-2.32,1.54-3.34,3.16-3.34s3.13,1.02,3.13,3.34-1.53,3.35-3.15,3.35-3.14-.98-3.14-3.35ZM126.23,32.93c0-1.7-1-2.74-2.51-2.74s-2.53,1.03-2.53,2.74.97,2.75,2.52,2.75,2.52-1.01,2.52-2.75ZM122.49,31.2h1.08c1.07,0,1.6.34,1.6,1.18,0,.64-.36.98-1.01,1.1l.98,1.12h-.77l-.87-1.06h-.4v1.06h-.6v-3.39ZM123.58,32.99c.74,0,.99-.19.99-.6,0-.44-.2-.63-.98-.63h-.5v1.23h.49Z"/>
  </g>
  <g>
    <path class="cls-3" d="M7.57,40.56l-7.57.03.21,18.03,7.36-18.06ZM29.37,57.64l-14.56-10.16,7.37,13.35,11.37-.12-4.19-3.07Z"/>
    <path class="cls-1" d="M29.63,30.55l3.04-3.14c.21-.31.41-.62.62-.93h-.58l-17.58.07L1.99,58.38l21.4-21.38,6.25-6.46Z"/>
  </g>
</svg>